<?xml version="1.0" encoding="UTF-8"?>
<!-- Generator: visioncortex VTracer 0.6.12 -->
<svg version="1.1" xmlns="http://www.w3.org/2000/svg" width="443" height="433">
<path d="M0 0 C0.839 0.646 1.678 1.292 2.543 1.957 C8.841 6.873 14.76 12.171 20.567 17.65 C21.878 18.886 23.202 20.108 24.527 21.328 C36.832 33.054 46.501 47.358 55 62 C55.381 62.648 55.762 63.297 56.155 63.965 C66.731 82.171 73.93 102.366 78 123 C78.162 123.815 78.325 124.63 78.492 125.469 C87.619 173.763 77.828 226.384 50.875 267.5 C49.595 269.341 48.304 271.175 47 273 C46.389 273.884 45.778 274.769 45.148 275.68 C33.829 291.75 20.392 305.8 5 318 C4.624 318.322 4.624 318.322 2.719 319.949 C-19.019 338.299 -47.415 350.719 -75 357 C-75.988 357.23 -76.975 357.46 -77.993 357.697 C-108.711 364.556 -143.329 365.49 -174 358 C-175.363 357.696 -176.726 357.393 -178.09 357.09 C-207.392 349.987 -234.643 335.891 -258 317 C-258.537 316.572 -259.073 316.143 -259.626 315.702 C-265.101 311.326 -270.39 306.993 -274.789 301.5 C-276 300 -276 300 -278.312 297.688 C-307.401 268.599 -324.543 231.354 -331 191 C-331.119 190.292 -331.237 189.585 -331.359 188.855 C-336.016 160.308 -333.04 130.636 -325 103 C-324.812 102.343 -324.624 101.685 -324.431 101.008 C-316.439 73.594 -301.606 47.71 -282 27 C-280.827 25.651 -279.66 24.297 -278.5 22.938 C-271.653 15.115 -264.272 8.287 -256 2 C-255.472 1.59 -254.944 1.18 -254.4 0.758 C-181.667 -55.561 -72.766 -57.327 0 0 Z M-177.938 -8.875 C-178.939 -8.576 -179.941 -8.278 -180.973 -7.97 C-191.063 -4.849 -200.582 -0.76 -210 4 C-210.722 4.364 -211.443 4.727 -212.187 5.102 C-225.514 11.934 -236.791 20.824 -247.77 30.961 C-249.819 32.835 -251.925 34.603 -254.062 36.375 C-275.509 55.157 -290.489 84.892 -298 112 C-298.093 112.331 -298.093 112.331 -298.566 114.004 C-310.472 156.622 -305.354 205.188 -284 244 C-268.615 270.909 -246.444 292.619 -221 310 C-220.205 310.544 -219.409 311.088 -218.59 311.648 C-201.036 322.856 -180.743 329.15 -160.5 333.312 C-159.724 333.472 -158.948 333.632 -158.148 333.796 C-111.577 342.731 -62.34 331.057 -23.356 304.786 C-17.635 300.841 -12.259 296.542 -7 292 C-6.198 291.321 -5.396 290.641 -4.57 289.941 C-0.293 286.247 3.571 282.42 7.207 278.094 C8.434 276.661 9.705 275.266 11.012 273.906 C41.142 242.315 53.707 198.583 53.277 155.828 C52.826 137.593 49.301 120.08 43 103 C42.885 102.678 42.885 102.678 42.306 101.048 C36.341 84.379 27.809 68.985 17 55 C16.33 54.107 15.659 53.213 14.969 52.293 C-13.41 15.891 -55.024 -7.988 -100.624 -14.519 C-105.187 -15.081 -109.707 -15.179 -114.301 -15.203 C-115.177 -15.209 -116.052 -15.215 -116.955 -15.22 C-118.805 -15.23 -120.654 -15.236 -122.504 -15.24 C-125.267 -15.25 -128.029 -15.281 -130.791 -15.312 C-146.947 -15.41 -162.432 -13.558 -177.938 -8.875 Z " fill="#E41B23" transform="translate(348,57)"/>
<path d="M0 0 C2.463 1.376 3.452 2.993 4.93 5.383 C5.427 6.174 5.925 6.966 6.438 7.781 C6.889 8.516 7.34 9.251 7.805 10.008 C8.135 10.503 8.135 10.503 9.805 13.008 C9.717 16.421 9.161 17.666 6.68 20.043 C5.731 20.712 4.782 21.381 3.805 22.07 C3.542 22.259 3.542 22.259 2.212 23.211 C0.419 24.491 -1.388 25.749 -3.195 27.008 C-4.558 27.973 -5.92 28.939 -7.281 29.906 C-10.026 31.853 -12.776 33.792 -15.531 35.723 C-16.194 36.212 -16.856 36.701 -17.538 37.205 C-20.195 39.008 -20.195 39.008 -23.665 40.82 C-33.021 45.99 -33.021 45.99 -34.98 51.025 C-36.175 56.895 -35.802 62.848 -35.562 68.797 C-35.536 70.711 -35.516 72.625 -35.502 74.538 C-35.449 79.549 -35.312 84.553 -35.157 89.561 C-35.013 94.682 -34.949 99.803 -34.879 104.926 C-34.729 114.956 -34.491 124.981 -34.195 135.008 C-31.719 131.301 -29.244 127.593 -26.769 123.884 C-25.929 122.626 -25.089 121.367 -24.249 120.109 C-19.907 113.609 -15.571 107.109 -11.383 100.508 C-7.556 94.501 -3.544 88.634 0.495 82.769 C5.919 74.879 11.223 66.91 16.512 58.928 C16.835 58.442 16.835 58.442 18.469 55.98 C19.041 55.117 19.612 54.253 20.202 53.364 C21.678 51.195 23.211 49.092 24.805 47.008 C27.871 47.318 28.784 47.985 30.91 50.301 C31.597 51.256 32.284 52.211 32.992 53.195 C33.687 54.138 34.382 55.08 35.098 56.051 C37.022 59.384 37.713 61.154 37.805 65.008 C36.494 67.928 34.652 70.417 32.777 73 C31.658 74.608 30.539 76.217 29.422 77.827 C28.829 78.672 28.236 79.516 27.625 80.386 C24.554 84.809 21.622 89.322 18.676 93.828 C17.444 95.702 16.211 97.576 14.979 99.449 C13.107 102.296 11.236 105.143 9.365 107.991 C7.512 110.813 5.657 113.633 3.801 116.453 C3.531 116.865 3.531 116.865 2.165 118.948 C-3.173 127.054 -8.693 135.004 -14.195 143.008 C9.73 143.173 9.73 143.173 130.805 144.008 C124.205 134.108 117.605 124.208 110.805 114.008 C99.471 97.008 88.138 80.008 76.805 63.008 C78.497 59.414 80.539 56.102 82.68 52.758 C83.358 51.68 84.036 50.602 84.734 49.492 C85.418 48.672 86.101 47.852 86.805 47.008 C88.125 47.008 89.445 47.008 90.805 47.008 C92.649 49.113 94.139 51.126 95.68 53.445 C96.174 54.167 96.669 54.89 97.179 55.634 C99.072 58.413 100.939 61.21 102.805 64.008 C103.665 65.292 104.525 66.575 105.386 67.858 C111.043 76.298 116.674 84.755 122.291 93.221 C125.787 98.489 129.296 103.749 132.805 109.008 C134.796 111.994 136.786 114.98 138.773 117.969 C140.202 120.106 141.638 122.236 143.086 124.359 C143.818 125.44 144.55 126.52 145.305 127.633 C145.64 128.124 145.64 128.124 147.336 130.609 C148.805 133.008 148.805 133.008 148.805 135.008 C149.465 135.008 150.125 135.008 150.805 135.008 C150.638 133.849 150.472 132.691 150.301 131.497 C149.788 127.373 149.738 123.324 149.866 119.174 C149.902 117.647 149.938 116.12 149.974 114.592 C149.994 113.795 150.014 112.998 150.035 112.177 C150.157 107.018 150.218 101.858 150.292 96.698 C150.361 92.18 150.45 87.663 150.58 83.145 C150.705 78.753 150.775 74.362 150.809 69.968 C150.832 68.303 150.874 66.639 150.937 64.975 C151.411 52.011 151.411 52.011 147.409 47.02 C144.642 44.73 141.89 42.838 138.805 41.008 C137.617 40.15 136.435 39.282 135.266 38.398 C134.247 37.692 133.229 36.986 132.18 36.258 C126.556 32.303 121.032 28.227 115.555 24.07 C115.185 23.792 115.185 23.792 113.314 22.386 C112.625 21.86 111.936 21.335 111.227 20.793 C110.614 20.328 110.001 19.862 109.37 19.383 C107.805 18.008 107.805 18.008 105.805 15.008 C107.207 12.685 108.625 10.376 110.055 8.07 C110.45 7.411 110.846 6.752 111.254 6.072 C114.293 1.214 114.293 1.214 116.78 0.21 C120.145 -0.126 122.269 2.107 124.805 4.07 C126.048 4.996 127.293 5.921 128.539 6.844 C129.216 7.35 129.894 7.856 130.592 8.378 C134.69 11.396 138.878 14.287 143.055 17.195 C144.685 18.334 146.315 19.474 147.945 20.613 C148.743 21.17 149.54 21.727 150.362 22.301 C176.924 40.859 176.924 40.859 187.992 48.945 C188.591 49.381 189.19 49.817 189.807 50.267 C193.595 53.048 197.221 55.968 200.805 59.008 C200.242 63.028 198.211 65.218 195.555 68.195 C194.786 69.076 194.018 69.956 193.227 70.863 C190.553 73.231 189.37 74.057 185.805 74.008 C183.051 72.461 183.051 72.461 180.242 70.258 C179.313 69.541 178.383 68.824 177.426 68.086 C176.561 67.4 175.696 66.714 174.805 66.008 C173.473 65.005 172.14 64.005 170.805 63.008 C170.794 64.309 170.784 65.609 170.773 66.949 C170.676 79.178 170.573 91.407 170.465 103.636 C170.41 109.923 170.357 116.211 170.307 122.499 C170.26 128.561 170.207 134.624 170.152 140.686 C170.131 143.005 170.113 145.323 170.096 147.642 C170.072 150.877 170.042 154.112 170.01 157.347 C170.004 158.316 169.998 159.285 169.993 160.283 C169.983 161.16 169.973 162.036 169.963 162.939 C169.96 163.322 169.96 163.322 169.943 165.261 C169.805 167.008 169.805 167.008 168.805 168.008 C165.95 168.108 163.119 168.142 160.263 168.135 C159.356 168.136 158.45 168.138 157.516 168.14 C154.453 168.144 151.391 168.14 148.328 168.137 C146.142 168.139 143.957 168.14 141.771 168.143 C135.817 168.147 129.862 168.145 123.908 168.142 C117.692 168.14 111.476 168.142 105.259 168.144 C94.148 168.145 83.037 168.142 71.926 168.137 C61.842 168.133 51.758 168.134 41.674 168.138 C29.977 168.144 18.28 168.146 6.583 168.143 C0.387 168.141 -5.81 168.141 -12.007 168.144 C-17.831 168.147 -23.655 168.145 -29.479 168.139 C-31.624 168.138 -33.768 168.138 -35.912 168.14 C-38.826 168.143 -41.74 168.14 -44.654 168.135 C-45.514 168.137 -46.374 168.139 -47.26 168.142 C-53.081 168.122 -53.081 168.122 -54.195 167.008 C-54.303 165.655 -54.342 164.296 -54.354 162.939 C-54.363 162.063 -54.373 161.186 -54.383 160.283 C-54.386 159.799 -54.386 159.799 -54.401 157.347 C-54.411 156.333 -54.42 155.318 -54.431 154.273 C-54.462 150.902 -54.487 147.531 -54.512 144.16 C-54.532 141.83 -54.553 139.5 -54.575 137.169 C-54.63 131.022 -54.679 124.876 -54.728 118.729 C-54.778 112.462 -54.833 106.195 -54.889 99.928 C-54.996 87.621 -55.098 75.314 -55.195 63.008 C-56.209 63.813 -57.222 64.619 -58.266 65.449 C-59.616 66.491 -60.968 67.531 -62.32 68.57 C-62.985 69.103 -63.651 69.636 -64.336 70.186 C-69.375 74.014 -69.375 74.014 -73.53 73.982 C-76.998 72.715 -78.611 70.984 -81.008 68.195 C-81.777 67.323 -82.547 66.45 -83.34 65.551 C-86.211 61.616 -86.211 61.616 -86.195 59.008 C-83.251 55.175 -78.986 52.673 -75.008 50.008 C-73.564 49.028 -72.122 48.048 -70.68 47.066 C-69.938 46.562 -69.196 46.058 -68.432 45.539 C-64.848 43.086 -61.302 40.58 -57.758 38.07 C-57.054 37.573 -56.351 37.075 -55.626 36.563 C-53.482 35.045 -51.339 33.527 -49.195 32.008 C-28.584 17.401 -28.584 17.401 -18.137 10.325 C-16.823 9.434 -15.512 8.539 -14.203 7.64 C-12.292 6.333 -10.371 5.043 -8.445 3.758 C-8.159 3.56 -8.159 3.56 -6.71 2.56 C-4.429 1.06 -2.773 0.01 0 0 Z " fill="#37923A" transform="translate(164.1953125,169.9921875)"/>
<path d="M0 0 C0.393 0.199 0.393 0.199 2.383 1.207 C17.177 9.254 25.79 22.345 31 38 C36.739 60.231 26.841 82.086 16.75 101.312 C16.228 102.325 15.706 103.338 15.168 104.381 C11.132 112.118 6.716 119.577 2.189 127.032 C0.174 130.367 -1.807 133.723 -3.789 137.078 C-4.594 138.438 -5.398 139.797 -6.203 141.156 C-7.419 143.211 -8.635 145.266 -9.849 147.322 C-12.192 151.29 -14.547 155.25 -16.921 159.199 C-17.956 160.927 -18.98 162.662 -20.003 164.396 C-20.305 164.896 -20.305 164.896 -21.836 167.422 C-22.355 168.289 -22.873 169.156 -23.408 170.05 C-25.214 172.263 -26.209 172.669 -29 173 C-34.23 165.822 -38.805 158.407 -43.188 150.688 C-44.176 148.96 -45.164 147.233 -46.152 145.506 C-47.142 143.774 -48.129 142.04 -49.116 140.306 C-50.835 137.29 -52.56 134.279 -54.289 131.27 C-57.207 126.188 -60.11 121.098 -63 116 C-63.447 115.212 -63.894 114.423 -64.355 113.611 C-92.383 64.055 -92.383 64.055 -86 36 C-83.533 27.403 -80.006 20.62 -74 14 C-73.216 13.134 -72.433 12.267 -71.625 11.375 C-52.781 -5.674 -23.433 -12.918 0 0 Z M-53 32 C-58.807 39.448 -59.13 48.001 -58.295 57.088 C-57.031 65.27 -50.892 70.861 -44.625 75.688 C-37.392 80.602 -29.492 80.683 -21 80 C-12.491 78.108 -5.945 73 -1 66 C3.187 59.281 3.981 52.806 3 45 C0.984 36.382 -4.084 29.093 -11.602 24.363 C-26.732 16.575 -41.586 19.125 -53 32 Z " fill="#EA1B23" transform="translate(250,77)"/>
<path d="M0 0 C0.33 0 0.66 0 1 0 C10.083 50.553 1.553 104.692 -28.086 147.32 C-28.402 147.762 -28.402 147.762 -30 150 C-30.306 150.442 -30.306 150.442 -31.852 152.68 C-43.171 168.75 -56.608 182.8 -72 195 C-72.376 195.322 -72.376 195.322 -74.281 196.949 C-96.019 215.299 -124.415 227.719 -152 234 C-152.988 234.23 -153.975 234.46 -154.993 234.697 C-185.711 241.556 -220.329 242.49 -251 235 C-252.363 234.696 -253.726 234.393 -255.09 234.09 C-284.395 226.987 -311.638 212.888 -335 194 C-335.553 193.561 -336.105 193.122 -336.675 192.669 C-338.333 191.352 -339.98 190.022 -341.625 188.688 C-342.106 188.298 -342.106 188.298 -344.539 186.324 C-346.96 184.038 -348.454 181.931 -350 179 C-346.891 180.365 -345.015 181.866 -342.75 184.375 C-318.862 208.748 -283.838 224.547 -251 232 C-249.747 232.296 -248.494 232.593 -247.203 232.898 C-194.719 244.082 -136.539 234.071 -90.977 205.742 C-86.83 203.025 -82.89 200.071 -79 197 C-78.341 196.481 -77.683 195.962 -77.004 195.428 C-66.296 186.943 -55.804 178.5 -47 168 C-46.533 167.483 -46.067 166.966 -45.586 166.434 C-10.663 127.511 4.131 76.486 2 25 C1.649 20.211 1.095 15.462 0.438 10.707 C0.012 7.099 -0.075 3.629 0 0 Z " fill="#151414" transform="translate(425,180)"/>
<path d="M0 0 C0.908 0.001 1.816 0.001 2.751 0.002 C16.887 0.041 30.383 0.81 44.125 4.375 C44.966 4.584 45.808 4.793 46.675 5.008 C83.134 14.265 111.419 34.638 137.125 61.375 C136.795 62.035 136.465 62.695 136.125 63.375 C135.669 62.898 135.213 62.421 134.742 61.929 C104.163 30.144 63.225 4.285 17.663 3.214 C16.05 3.194 14.437 3.18 12.824 3.172 C11.948 3.166 11.073 3.16 10.17 3.155 C8.32 3.145 6.471 3.139 4.621 3.135 C1.858 3.125 -0.904 3.094 -3.666 3.062 C-19.822 2.965 -35.307 4.817 -50.812 9.5 C-51.814 9.799 -52.816 10.097 -53.848 10.405 C-63.938 13.526 -73.457 17.615 -82.875 22.375 C-83.597 22.739 -84.318 23.102 -85.062 23.477 C-98.421 30.326 -109.707 39.241 -120.711 49.402 C-122.572 51.098 -124.474 52.677 -126.438 54.25 C-147.746 72.472 -162.511 102.797 -169.875 129.375 C-170.062 130.036 -170.249 130.698 -170.441 131.379 C-177.114 155.265 -178.353 181.888 -174.312 206.414 C-173.865 209.444 -173.802 212.317 -173.875 215.375 C-174.205 215.375 -174.535 215.375 -174.875 215.375 C-177.27 203.377 -178.356 191.831 -178.266 179.599 C-178.25 177.008 -178.266 174.419 -178.285 171.828 C-178.307 155.709 -176.564 139.823 -171.562 124.438 C-171.258 123.471 -170.953 122.504 -170.639 121.508 C-168.258 114.143 -165.412 107.267 -161.875 100.375 C-161.331 99.23 -160.787 98.086 -160.227 96.906 C-152.628 81.091 -141.717 64.556 -128.875 52.375 C-128.215 52.375 -127.555 52.375 -126.875 52.375 C-126.545 51.385 -126.215 50.395 -125.875 49.375 C-123.407 46.828 -120.597 44.646 -117.875 42.375 C-117.113 41.703 -116.351 41.032 -115.566 40.34 C-102.24 28.885 -86.966 20.285 -70.875 13.375 C-69.862 12.917 -68.849 12.46 -67.805 11.988 C-46.482 2.976 -22.945 -0.052 0 0 Z " fill="#181414" transform="translate(220.875,39.625)"/>
<path d="M0 0 C0.66 0.33 1.32 0.66 2 1 C2.052 1.371 2.052 1.371 2.312 3.25 C3.23 6.921 5.3 8.439 8 11 C8 11.66 8 12.32 8 13 C11.851 14.088 13.477 14.266 17.105 12.418 C18.123 11.682 19.14 10.946 20.188 10.188 C21.212 9.459 22.237 8.731 23.293 7.98 C24.186 7.327 25.08 6.673 26 6 C29 4 29 4 32 4 C32.33 38.32 32.66 72.64 33 108 C105.93 108.33 178.86 108.66 254 109 C254 74.35 254 39.7 254 4 C257.945 4.986 259.722 6.027 262.938 8.375 C266.213 10.754 269.502 12.96 273 15 C277.364 11.883 280.086 8.407 283 4 C283.66 3.01 284.32 2.02 285 1 C285.816 2.605 285.816 2.605 286 5 C284.388 7.345 282.857 9.251 280.938 11.312 C280.698 11.594 280.698 11.594 279.486 13.018 C278.027 14.613 278.027 14.613 275 17 C269.419 16.93 266.242 14.323 262.125 10.938 C261.829 10.701 261.829 10.701 260.328 9.506 C258.877 8.347 257.437 7.175 256 6 C255.99 7.301 255.979 8.601 255.969 9.942 C255.871 22.17 255.768 34.399 255.661 46.628 C255.605 52.916 255.552 59.203 255.503 65.491 C255.455 71.553 255.403 77.616 255.347 83.678 C255.327 85.997 255.308 88.315 255.291 90.634 C255.267 93.869 255.237 97.104 255.205 100.34 C255.2 101.308 255.194 102.277 255.188 103.276 C255.178 104.152 255.168 105.028 255.158 105.932 C255.155 106.315 255.155 106.315 255.139 108.253 C255 110 255 110 254 111 C251.145 111.1 248.314 111.134 245.458 111.127 C244.552 111.129 243.645 111.13 242.711 111.132 C239.648 111.136 236.586 111.133 233.523 111.129 C231.338 111.131 229.152 111.133 226.966 111.135 C221.012 111.139 215.058 111.137 209.103 111.134 C202.887 111.132 196.671 111.134 190.455 111.136 C179.344 111.138 168.233 111.135 157.121 111.129 C147.037 111.125 136.953 111.126 126.869 111.13 C115.172 111.136 103.476 111.138 91.779 111.135 C85.582 111.133 79.385 111.133 73.189 111.136 C67.364 111.139 61.54 111.137 55.716 111.131 C53.572 111.13 51.427 111.13 49.283 111.133 C46.369 111.135 43.455 111.132 40.542 111.127 C39.681 111.129 38.821 111.131 37.935 111.134 C32.114 111.114 32.114 111.114 31 110 C30.893 108.647 30.853 107.289 30.842 105.932 C30.832 105.055 30.822 104.179 30.812 103.276 C30.809 102.791 30.809 102.791 30.795 100.34 C30.785 99.325 30.775 98.311 30.765 97.265 C30.733 93.894 30.708 90.523 30.684 87.152 C30.663 84.822 30.642 82.492 30.621 80.162 C30.565 74.015 30.516 67.868 30.468 61.721 C30.418 55.454 30.362 49.187 30.307 42.92 C30.199 30.613 30.098 18.307 30 6 C28.987 6.806 27.974 7.611 26.93 8.441 C25.579 9.483 24.227 10.523 22.875 11.562 C22.21 12.096 21.545 12.629 20.859 13.178 C15.82 17.006 15.82 17.006 11.665 16.974 C8.198 15.707 6.585 13.977 4.188 11.188 C3.418 10.315 2.648 9.442 1.855 8.543 C0.151 6.207 -0.722 4.845 -1 2 C-0.67 1.34 -0.34 0.68 0 0 Z " fill="#141414" transform="translate(79,227)"/>
<path d="M0 0 C0.33 0 0.66 0 1 0 C1.026 1.258 1.052 2.516 1.078 3.812 C1.583 21.127 4.646 34.756 12.91 49.983 C13.984 51.97 15.027 53.97 16.062 55.977 C25.001 73.223 34.729 90.071 44.673 106.755 C46.192 109.324 47.685 111.908 49.18 114.492 C50.265 116.349 51.351 118.206 52.438 120.062 C52.946 120.951 53.455 121.839 53.979 122.755 C54.459 123.569 54.939 124.384 55.434 125.223 C55.645 125.588 55.645 125.588 56.717 127.434 C56.928 127.692 56.928 127.692 58 129 C58.99 129 59.98 129 61 129 C62.691 126.507 64.17 124.065 65.625 121.438 C66.529 119.851 67.434 118.265 68.34 116.68 C68.791 115.883 69.242 115.086 69.707 114.265 C71.479 111.162 73.33 108.115 75.188 105.062 C81.974 93.816 88.48 82.402 95 71 C95.503 70.123 96.005 69.246 96.523 68.342 C108.816 46.83 117.38 28.062 118 3 C118.33 3 118.66 3 119 3 C119.917 25.016 113.959 41.862 103.75 61.312 C103.228 62.325 102.706 63.338 102.168 64.381 C98.132 72.118 93.716 79.577 89.189 87.032 C87.174 90.367 85.193 93.723 83.211 97.078 C82.406 98.438 81.602 99.797 80.797 101.156 C79.581 103.211 78.365 105.266 77.151 107.322 C74.808 111.29 72.453 115.25 70.079 119.199 C69.044 120.927 68.02 122.662 66.997 124.396 C66.695 124.896 66.695 124.896 65.164 127.422 C64.645 128.289 64.127 129.156 63.592 130.05 C61.786 132.263 60.791 132.669 58 133 C52.77 125.822 48.195 118.407 43.812 110.688 C42.824 108.96 41.836 107.233 40.848 105.506 C39.858 103.774 38.871 102.04 37.884 100.306 C36.165 97.29 34.44 94.279 32.711 91.27 C29.793 86.188 26.89 81.098 24 76 C23.553 75.212 23.106 74.423 22.645 73.611 C-4.121 26.286 -4.121 26.286 0 0 Z " fill="#151414" transform="translate(163,117)"/>
<path d="M0 0 C8.464 12.695 16.927 25.391 25.391 38.086 C25.982 38.973 26.573 39.859 27.182 40.773 C28.393 42.59 29.605 44.408 30.816 46.225 C33.474 50.214 36.133 54.201 38.801 58.184 C42.943 64.371 47.062 70.573 51.125 76.812 C51.32 77.109 51.32 77.109 52.31 78.611 C55 82.769 55 82.769 55 85 C5.5 85 -44 85 -95 85 C-89.382 73.764 -89.382 73.764 -86.801 70.211 C-86.236 69.423 -85.672 68.634 -85.09 67.822 C-84.797 67.418 -84.797 67.418 -83.312 65.375 C-78.452 58.569 -73.788 51.71 -69.46 44.552 C-66.785 40.152 -63.887 35.949 -60.916 31.744 C-57.439 26.764 -54.104 21.688 -50.75 16.625 C-49.35 14.512 -47.949 12.4 -46.547 10.289 C-45.937 9.368 -45.327 8.447 -44.698 7.499 C-43.191 5.281 -41.63 3.129 -40 1 C-40.57 4.939 -41.72 7.524 -43.91 10.832 C-44.543 11.796 -45.176 12.76 -45.829 13.752 C-46.545 14.824 -47.262 15.896 -48 17 C-48.793 18.198 -49.586 19.396 -50.378 20.595 C-53.053 24.634 -55.745 28.661 -58.438 32.688 C-59.412 34.147 -60.387 35.607 -61.361 37.066 C-63.314 39.992 -65.268 42.917 -67.222 45.841 C-71.153 51.725 -75.076 57.612 -79 63.5 C-80.229 65.344 -81.458 67.188 -82.688 69.031 C-83.186 69.78 -83.685 70.528 -84.199 71.299 C-84.496 71.745 -84.496 71.745 -86 74 C-86.99 75.485 -86.99 75.485 -92 83 C-68.075 83.165 -68.075 83.165 53 84 C46.4 74.1 39.8 64.2 33 54 C30.907 50.86 28.813 47.72 26.656 44.484 C25.788 43.183 24.92 41.881 24.026 40.54 C22.261 37.893 20.499 35.246 18.738 32.597 C14.826 26.717 10.909 20.845 6.91 15.023 C6.331 14.176 5.753 13.328 5.156 12.454 C4.132 10.958 3.101 9.467 2.059 7.983 C0.96 6.373 -0.033 4.692 -1 3 C-0.67 2.01 -0.34 1.02 0 0 Z " fill="#141514" transform="translate(242,230)"/>
<path d="M0 0 C0.47 -0.001 0.47 -0.001 2.848 -0.004 C3.836 -0 4.825 0.004 5.844 0.008 C6.338 0.006 6.338 0.006 8.84 -0.004 C9.78 -0.003 10.719 -0.001 11.688 0 C12.556 0.001 13.424 0.002 14.318 0.003 C16.344 0.133 16.344 0.133 17.344 1.133 C17.444 4.121 17.482 7.082 17.469 10.07 C17.471 10.489 17.471 10.489 17.48 12.607 C17.479 13.409 17.478 14.21 17.477 15.035 C17.475 15.772 17.474 16.51 17.473 17.269 C17.344 19.133 17.344 19.133 16.344 21.133 C12.865 21.162 9.385 21.18 5.906 21.195 C5.41 21.2 5.41 21.2 2.896 21.221 C1.952 21.224 1.008 21.227 0.035 21.23 C-0.402 21.233 -0.402 21.233 -2.615 21.246 C-4.656 21.133 -4.656 21.133 -5.656 20.133 C-5.755 18.729 -5.787 17.321 -5.789 15.914 C-5.79 15.065 -5.792 14.215 -5.793 13.34 C-5.789 12.447 -5.785 11.553 -5.781 10.633 C-5.785 9.739 -5.789 8.846 -5.793 7.926 C-5.792 7.076 -5.79 6.227 -5.789 5.352 C-5.788 4.567 -5.787 3.783 -5.786 2.975 C-5.524 -0.749 -3.183 0.004 0 0 Z " fill="#307933" transform="translate(202.65625,257.8671875)"/>
<path d="M0 0 C0.895 -0.001 1.789 -0.003 2.711 -0.004 C3.652 -0 4.593 0.004 5.562 0.008 C6.033 0.006 6.033 0.006 8.414 -0.004 C8.861 -0.003 8.861 -0.003 11.125 0 C11.951 0.001 12.778 0.002 13.629 0.003 C15.562 0.133 15.562 0.133 16.562 1.133 C16.661 2.536 16.693 3.945 16.695 5.352 C16.696 5.776 16.696 5.776 16.699 7.926 C16.695 8.819 16.691 9.712 16.688 10.633 C16.689 11.079 16.689 11.079 16.699 13.34 C16.698 14.189 16.697 15.039 16.695 15.914 C16.694 16.698 16.693 17.483 16.692 18.291 C16.562 20.133 16.562 20.133 15.562 21.133 C14.074 21.22 12.581 21.24 11.09 21.23 C10.191 21.227 9.292 21.224 8.365 21.221 C7.42 21.212 6.474 21.204 5.5 21.195 C4.551 21.191 3.601 21.186 2.623 21.182 C0.269 21.17 -2.084 21.153 -4.438 21.133 C-6.776 17.017 -6.505 13.544 -6.125 8.945 C-6.077 8.209 -6.028 7.472 -5.979 6.713 C-5.491 0.007 -5.491 0.007 0 0 Z " fill="#317B33" transform="translate(231.4375,257.8671875)"/>
<path d="M0 0 C0.47 -0.001 0.47 -0.001 2.848 -0.004 C3.836 -0 4.825 0.004 5.844 0.008 C6.338 0.006 6.338 0.006 8.84 -0.004 C9.78 -0.003 10.719 -0.001 11.688 0 C12.556 0.001 13.424 0.002 14.318 0.003 C16.344 0.133 16.344 0.133 17.344 1.133 C17.444 3.976 17.483 6.79 17.469 9.633 C17.471 10.032 17.471 10.032 17.48 12.051 C17.47 18.006 17.47 18.006 16.344 19.133 C14.709 19.22 13.071 19.24 11.434 19.23 C10.444 19.227 9.455 19.224 8.436 19.221 C7.395 19.212 6.354 19.204 5.281 19.195 C4.236 19.191 3.192 19.186 2.115 19.182 C-0.475 19.17 -3.066 19.153 -5.656 19.133 C-5.683 16.154 -5.703 13.175 -5.719 10.195 C-5.727 9.345 -5.736 8.495 -5.744 7.619 C-5.747 6.81 -5.751 6.001 -5.754 5.168 C-5.759 4.419 -5.764 3.67 -5.77 2.899 C-5.534 -0.762 -3.092 0.004 0 0 Z " fill="#39963C" transform="translate(202.65625,284.8671875)"/>
<path d="M0 0 C3.312 -0.029 6.625 -0.047 9.938 -0.062 C10.883 -0.071 11.829 -0.079 12.803 -0.088 C13.252 -0.09 13.252 -0.09 15.527 -0.098 C15.944 -0.1 15.944 -0.1 18.051 -0.114 C20 0 20 0 21 1 C21.086 2.343 21.107 3.69 21.098 5.035 C21.094 5.844 21.091 6.653 21.088 7.486 C21.08 8.336 21.071 9.187 21.062 10.062 C21.058 10.917 21.053 11.771 21.049 12.65 C21.037 14.767 21.019 16.883 21 19 C17.521 19.029 14.042 19.047 10.562 19.062 C10.066 19.067 10.066 19.067 7.553 19.088 C6.608 19.091 5.664 19.094 4.691 19.098 C4.254 19.1 4.254 19.1 2.041 19.114 C0 19 0 19 -1 18 C-1.29 15.924 -1.507 13.838 -1.688 11.75 C-1.794 10.61 -1.901 9.471 -2.012 8.297 C-2 4.968 -1.452 2.96 0 0 Z " fill="#317D34" transform="translate(227,285)"/>
<path d="M0 0 C0.165 0.66 0.165 0.66 1 4 C-5.806 9.791 -13.013 14.847 -20.431 19.815 C-21.977 20.856 -23.508 21.918 -25.025 23 C-27.252 24.497 -29.398 25.775 -31.744 27.047 C-41.741 32.84 -41.741 32.84 -43.84 38.107 C-45.109 44.124 -44.723 50.22 -44.465 56.324 C-44.437 58.281 -44.415 60.239 -44.401 62.196 C-44.344 67.317 -44.197 72.431 -44.03 77.549 C-43.876 82.784 -43.808 88.019 -43.732 93.256 C-43.572 103.507 -43.317 113.753 -43 124 C-43.33 124.165 -43.33 124.165 -45 125 C-45.419 113.361 -45.738 101.724 -45.933 90.079 C-46.026 84.67 -46.153 79.266 -46.358 73.86 C-46.555 68.634 -46.661 63.412 -46.708 58.182 C-46.741 56.196 -46.805 54.211 -46.903 52.227 C-47.615 37.166 -47.615 37.166 -43.293 31.934 C-39.065 28.086 -34.361 25.181 -29.391 22.392 C-25.392 20.064 -21.686 17.331 -17.938 14.625 C-16.541 13.639 -15.144 12.655 -13.746 11.672 C-1.486 2.971 -1.486 2.971 0 0 Z " fill="#141514" transform="translate(173,183)"/>
<path d="M0 0 C0.706 0.731 1.413 1.462 2.141 2.215 C10.099 9.967 19.608 16.242 28.735 22.537 C30.066 23.462 31.383 24.408 32.682 25.377 C35 27 35 27 37.567 28.344 C41.216 30.551 44.326 32.656 45.557 36.937 C46.438 42.934 46.145 48.991 45.977 55.031 C45.958 56.993 45.944 58.954 45.934 60.916 C45.896 66.06 45.798 71.2 45.687 76.343 C45.584 81.598 45.539 86.854 45.488 92.109 C45.381 102.408 45.211 112.704 45 123 C44.67 123 44.34 123 44 123 C42.786 115.004 43.024 107.117 43.23 99.063 C43.353 93.912 43.413 88.76 43.488 83.608 C43.557 79.099 43.645 74.591 43.775 70.083 C43.9 65.695 43.97 61.31 44.005 56.921 C44.027 55.259 44.07 53.598 44.132 51.937 C44.606 39.002 44.606 39.002 40.605 34.014 C37.837 31.725 35.085 29.831 32 28 C30.812 27.142 29.631 26.274 28.461 25.391 C27.952 25.037 27.952 25.037 25.375 23.25 C19.751 19.295 14.227 15.219 8.75 11.062 C8.011 10.507 7.271 9.951 6.509 9.378 C5.82 8.852 5.132 8.327 4.422 7.785 C3.809 7.32 3.197 6.855 2.565 6.375 C1 5 1 5 -1 2 C-0.67 1.34 -0.34 0.68 0 0 Z " fill="#141414" transform="translate(271,183)"/>
<path d="M0 0 C6.771 5.197 10.934 10.932 13.688 19.062 C14.147 23.783 14.065 28.34 13.688 33.062 C13.358 33.062 13.028 33.062 12.688 33.062 C12.662 32.312 12.636 31.562 12.609 30.789 C12.044 20.589 9.864 12.407 2.754 4.82 C-4.327 -1.203 -12.275 -3.332 -21.371 -3.211 C-29.805 -2.427 -36.812 1.719 -42.312 8.062 C-47.658 15.496 -48.171 23.105 -48.312 32.062 C-48.643 32.062 -48.972 32.062 -49.312 32.062 C-50.718 23.156 -50.461 16.259 -45.715 8.426 C-34.025 -7.633 -16.476 -9.637 0 0 Z " fill="#151414" transform="translate(240.3125,100.9375)"/>
<path d="M0 0 C3.312 -0.029 6.625 -0.047 9.938 -0.062 C10.883 -0.071 11.829 -0.079 12.803 -0.088 C13.252 -0.09 13.252 -0.09 15.527 -0.098 C15.944 -0.1 15.944 -0.1 18.051 -0.114 C20 0 20 0 21 1 C21.1 3.843 21.139 6.657 21.125 9.5 C21.127 9.899 21.127 9.899 21.137 11.918 C21.127 17.873 21.127 17.873 20 19 C18.365 19.087 16.727 19.107 15.09 19.098 C14.1 19.094 13.111 19.091 12.092 19.088 C11.051 19.08 10.01 19.071 8.938 19.062 C7.893 19.058 6.848 19.053 5.771 19.049 C3.181 19.037 0.59 19.019 -2 19 C-2 13.06 -2 7.12 -2 1 C-1.67 1 -1.34 1 -1 1 C-0.67 6.28 -0.34 11.56 0 17 C5.94 17 11.88 17 18 17 C18.33 12.05 18.66 7.1 19 2 C12.73 1.67 6.46 1.34 0 1 C0 0.67 0 0.34 0 0 Z " fill="#141514" transform="translate(199,285)"/>
</svg>
